<?xml version="1.0" standalone="no"?>
<!DOCTYPE svg PUBLIC "-//W3C//DTD SVG 20010904//EN"
 "http://www.w3.org/TR/2001/REC-SVG-20010904/DTD/svg10.dtd">
<svg version="1.0" xmlns="http://www.w3.org/2000/svg"
 width="128.000000pt" height="128.000000pt" viewBox="0 0 300.000000 300.000000"
 preserveAspectRatio="xMidYMid meet">

<g transform="translate(0.000000,300.000000) scale(0.100000,-0.100000)"
fill="#000000" stroke="none">
<path d="M2825 2600 c-5 -6 -41 -31 -80 -57 -158 -106 -229 -155 -254 -174
-66 -50 -86 -66 -117 -92 l-32 -28 -39 22 c-42 24 -173 79 -187 79 -21 0 12
-18 73 -39 72 -26 231 -116 231 -132 0 -16 -89 -52 -103 -41 -17 13 -74 23
-92 16 -8 -4 -15 -18 -15 -34 0 -21 7 -30 30 -40 31 -13 80 -7 80 10 0 5 20
19 45 30 96 44 89 44 154 -10 69 -57 158 -165 191 -229 16 -32 22 -61 21 -104
0 -33 -2 -61 -3 -62 -17 -11 -337 -281 -378 -319 -30 -28 -74 -66 -97 -84 -23
-19 -51 -41 -61 -50 -11 -10 -36 -30 -57 -47 -48 -39 -63 -52 -121 -101 -89
-76 -678 -568 -728 -609 -28 -22 -66 -55 -85 -73 -51 -47 -130 -106 -171 -128
-19 -10 -38 -23 -42 -29 -5 -6 -8 -5 -8 4 0 8 -7 11 -20 8 -11 -3 -20 -2 -20
2 0 7 -101 46 -113 43 -4 -1 -7 5 -7 13 0 8 -4 15 -10 15 -5 0 -12 0 -15 0 -3
0 -13 8 -23 18 -53 51 -105 91 -113 86 -5 -3 -8 0 -7 8 2 7 -3 12 -10 10 -6
-1 -11 4 -10 10 2 7 -2 12 -9 11 -7 -2 -10 3 -7 11 3 9 -3 17 -15 21 -12 3
-21 11 -21 16 0 5 -26 42 -58 82 -149 186 -251 388 -282 559 -12 65 -8 135 7
162 24 40 70 82 118 106 11 6 40 24 65 40 25 16 67 41 94 56 27 14 54 30 60
35 6 5 58 37 116 71 58 33 121 71 140 83 19 12 60 37 90 55 30 18 71 43 90 55
19 12 76 46 125 75 50 29 106 63 125 75 52 33 331 199 349 208 9 4 36 21 61
37 25 16 68 41 95 56 28 14 58 33 68 42 10 9 48 19 90 23 l72 8 -75 -3 c-65
-2 -82 -7 -130 -37 -31 -19 -64 -39 -75 -46 -53 -31 -328 -194 -398 -236 -21
-12 -53 -31 -70 -42 -18 -11 -77 -47 -132 -79 -55 -32 -116 -68 -135 -81 -19
-12 -102 -61 -185 -110 -82 -48 -166 -98 -185 -110 -19 -13 -102 -62 -184
-111 -162 -95 -199 -126 -217 -182 -16 -49 -5 -192 21 -267 46 -135 166 -362
205 -391 8 -6 15 -15 15 -19 0 -14 112 -146 181 -213 37 -35 100 -87 140 -113
139 -93 230 -102 315 -33 26 21 55 46 64 54 20 18 47 41 175 148 55 46 125
105 155 132 30 26 132 112 225 190 202 169 210 175 440 371 99 84 200 171 225
193 45 40 75 66 161 136 23 19 50 42 59 50 24 23 81 71 129 109 40 33 42 36
36 75 -9 56 -45 153 -61 167 -8 6 -14 17 -14 24 0 7 -50 60 -110 118 l-110
105 27 10 c65 22 383 238 383 260 0 19 5 22 -174 -105 -41 -29 -79 -53 -84
-53 -6 0 -12 -3 -14 -7 -4 -11 -118 -79 -145 -87 -15 -5 -33 0 -58 17 l-36 24
58 50 c32 28 87 71 123 95 36 25 106 73 155 107 50 35 102 70 117 79 16 10 28
23 28 30 0 14 -11 15 -25 2z m-572 -480 c3 -12 14 -20 27 -20 11 0 18 -4 15
-10 -9 -15 -30 -12 -55 8 -13 11 -20 24 -16 30 11 18 23 14 29 -8z m42 10 c3
-5 1 -10 -4 -10 -6 0 -11 5 -11 10 0 6 2 10 4 10 3 0 8 -4 11 -10z"/>
<path d="M2035 2360 c17 -4 39 -8 50 -8 16 0 15 2 -5 8 -14 4 -36 8 -50 8 -22
0 -22 -1 5 -8z"/>
<path d="M1875 2100 c-27 -12 -71 -48 -65 -52 3 -3 28 -22 55 -44 28 -21 53
-43 57 -49 5 -6 8 -3 8 7 0 10 -8 22 -19 27 -23 13 -32 56 -16 78 11 15 16 14
59 -11 51 -30 62 -46 50 -73 -4 -10 -6 -23 -5 -30 2 -14 -22 -11 -43 6 -13 11
-16 11 -16 -1 0 -17 101 -100 110 -91 3 3 -5 12 -17 20 -25 17 -31 53 -9 53 8
0 22 7 30 16 19 18 22 49 4 38 -8 -5 -9 0 -6 14 4 12 1 25 -4 29 -7 3 -8 1 -4
-5 4 -7 2 -12 -3 -12 -6 0 -11 -8 -11 -17 0 -10 -11 4 -24 30 -14 29 -26 43
-29 35 -4 -8 -8 -5 -13 10 -5 18 -12 23 -30 19 -13 -2 -21 0 -18 4 7 11 -15
10 -41 -1z"/>
<path d="M1738 1999 c-8 -23 -13 -27 -19 -17 -7 11 -13 10 -36 -4 -15 -9 -29
-21 -31 -26 -1 -5 21 -29 50 -53 29 -24 67 -56 83 -71 17 -16 37 -28 45 -28
11 1 10 4 -5 16 -11 8 -35 27 -54 42 -19 15 -37 29 -41 32 -4 3 -10 20 -13 38
-8 38 -9 39 78 -26 33 -24 46 -31 29 -15 -28 26 -60 90 -50 101 3 2 37 -23 76
-57 39 -34 76 -61 83 -61 6 0 -4 14 -23 31 -19 17 -49 44 -67 59 -17 15 -34
26 -37 22 -3 -3 -6 7 -6 21 0 22 -5 27 -26 27 -19 0 -28 -7 -36 -31z"/>
<path d="M1591 1916 c-9 -11 -1 -21 36 -51 40 -32 43 -33 21 -9 -16 17 -28 40
-28 52 0 25 -12 28 -29 8z"/>
<path d="M1375 1868 c-11 -6 -24 -15 -30 -20 -5 -5 -19 -15 -30 -22 -16 -12
-17 -16 -6 -30 12 -15 16 -15 36 -2 20 14 26 10 98 -58 86 -81 99 -112 42
-103 -20 3 -35 2 -35 -4 0 -6 6 -7 13 -3 9 6 9 5 -1 -8 -10 -12 -9 -18 3 -28
24 -20 86 -1 102 30 14 27 -2 44 -18 19 -6 -10 -9 -7 -9 12 0 19 -17 42 -59
82 -55 53 -81 102 -58 110 14 4 1 37 -15 37 -7 0 -22 -6 -33 -12z"/>
<path d="M1501 1861 c-11 -7 0 -22 49 -68 75 -70 96 -82 135 -83 48 0 76 40
38 55 -12 4 -24 -1 -35 -15 -17 -20 -18 -21 -19 -4 0 18 -1 17 -9 -1 -8 -18
-9 -18 -9 5 -1 17 -4 21 -9 12 -7 -9 -15 -6 -36 13 -15 14 -25 29 -22 34 3 5
-2 15 -12 22 -15 13 -16 12 -3 -3 18 -24 -1 -23 -22 0 -19 21 -22 37 -5 26 7
-4 8 -3 4 4 -9 14 -26 15 -45 3z"/>
<path d="M1860 1851 c0 -5 5 -13 10 -16 6 -3 10 -2 10 4 0 5 -4 13 -10 16 -5
3 -10 2 -10 -4z"/>
<path d="M2337 1830 c-3 -11 -1 -20 4 -20 5 0 9 9 9 20 0 11 -2 20 -4 20 -2 0
-6 -9 -9 -20z"/>
<path d="M1680 1816 c0 -2 8 -10 18 -17 15 -13 16 -12 3 4 -13 16 -21 21 -21
13z"/>
<path d="M2280 1809 c0 -4 7 -12 15 -19 13 -11 18 -11 28 0 10 10 9 11 -2 5
-11 -6 -13 -4 -8 8 4 11 0 15 -14 14 -10 -1 -19 -4 -19 -8z"/>
<path d="M2364 1798 l-19 -23 23 19 c21 18 27 26 19 26 -2 0 -12 -10 -23 -22z"/>
<path d="M2250 1770 c0 -5 5 -10 11 -10 5 0 7 5 4 10 -3 6 -8 10 -11 10 -2 0
-4 -4 -4 -10z"/>
<path d="M2219 1764 c5 -3 7 -14 4 -25 -4 -15 -9 -17 -19 -8 -8 7 -19 7 -30 1
-15 -8 -14 -11 6 -25 14 -10 20 -22 17 -31 -5 -13 -3 -14 13 -3 11 6 20 15 20
20 0 4 -4 5 -10 2 -5 -3 -10 -1 -10 5 0 6 6 13 13 16 17 6 15 47 -2 50 -6 1
-7 0 -2 -2z m-14 -44 c3 -5 -1 -10 -9 -10 -9 0 -16 5 -16 10 0 6 4 10 9 10 6
0 13 -4 16 -10z"/>
<path d="M2284 1738 l-19 -23 23 19 c21 18 27 26 19 26 -2 0 -12 -10 -23 -22z"/>
<path d="M2125 1700 c-3 -6 1 -12 9 -15 9 -3 23 -7 30 -9 10 -3 13 0 9 10 -3
8 -12 13 -20 10 -8 -3 -11 -1 -8 4 3 6 2 10 -4 10 -5 0 -13 -5 -16 -10z"/>
<path d="M2093 1675 c-3 -9 -20 -23 -37 -31 -23 -10 -25 -13 -8 -10 17 3 22 1
18 -9 -3 -8 -1 -17 4 -20 6 -4 10 5 10 19 0 20 5 26 23 27 12 0 17 3 10 5 -7
3 -9 12 -6 20 3 8 2 14 -1 14 -4 0 -9 -7 -13 -15z"/>
<path d="M1275 1660 c-16 -11 -38 -25 -48 -32 -54 -37 -52 -35 -38 -52 19 -23
26 -21 86 22 39 28 51 42 45 52 -5 8 -6 18 -4 22 9 14 -10 9 -41 -12z"/>
<path d="M2154 1638 l-19 -23 23 19 c21 18 27 26 19 26 -2 0 -12 -10 -23 -22z"/>
<path d="M2006 1611 c-3 -4 3 -16 14 -26 11 -10 20 -13 20 -7 0 6 -5 14 -11
18 -8 4 -7 9 2 15 11 7 10 9 -3 9 -9 0 -19 -4 -22 -9z"/>
<path d="M1088 1599 c-10 -5 -18 -22 -19 -37 0 -15 -3 -21 -6 -14 -2 6 -12 12
-21 12 -57 -1 -71 -78 -24 -123 15 -15 33 -27 40 -27 7 0 12 -11 12 -25 0 -15
9 -31 25 -41 15 -10 25 -26 25 -40 0 -32 70 -68 85 -43 4 5 15 9 25 9 24 0 80
56 79 78 -1 13 -2 12 -6 -3 -4 -14 -10 -7 -24 30 -22 59 -22 58 -7 49 7 -4 8
-3 4 4 -13 21 -35 12 -39 -15 l-4 -28 -2 28 c-2 38 -21 34 -22 -5 -2 -31 -2
-31 -6 -5 -5 33 -7 33 -41 2 -47 -44 -58 -25 -17 29 14 18 25 39 24 47 0 8 -4
6 -9 -6 -8 -18 -9 -18 -9 -2 -1 10 -5 15 -11 12 -6 -4 -7 1 -3 10 3 10 0 21
-7 25 -7 4 -13 26 -13 49 0 44 -2 46 -29 30z m6 -85 c20 -8 21 -48 1 -64 -8
-7 -15 -19 -15 -26 0 -32 -28 1 -33 39 -8 56 3 68 47 51z m3 -111 c-3 -10 -5
-4 -5 12 0 17 2 24 5 18 2 -7 2 -21 0 -30z m163 -32 c0 -5 -13 -20 -29 -34
-17 -14 -27 -28 -23 -31 3 -4 -2 -4 -13 0 -15 6 -17 4 -12 -9 3 -9 2 -17 -3
-17 -5 0 -10 12 -12 28 -2 21 4 32 27 49 31 23 65 30 65 14z"/>
<path d="M2074 1578 l-19 -23 23 19 c21 18 27 26 19 26 -2 0 -12 -10 -23 -22z"/>
<path d="M1965 1580 c-3 -5 -3 -15 1 -21 4 -8 -1 -9 -15 -4 -18 5 -24 2 -28
-14 -3 -11 -9 -18 -15 -15 -5 3 -15 0 -23 -6 -11 -9 -12 -16 -2 -31 12 -20 37
-26 37 -9 0 6 -5 10 -11 10 -8 0 -8 5 1 15 7 8 17 12 23 8 6 -4 8 2 4 16 -3
15 -1 21 6 18 7 -2 11 -12 11 -21 -1 -9 2 -16 7 -16 5 0 9 9 9 20 0 11 5 20
11 20 6 0 8 7 5 16 -3 8 -2 12 4 9 6 -3 10 -1 10 4 0 14 -27 14 -35 1z"/>
<path d="M2005 1560 c-3 -5 -1 -10 4 -10 6 0 11 5 11 10 0 6 -2 10 -4 10 -3 0
-8 -4 -11 -10z"/>
<path d="M1944 1478 l-19 -23 23 19 c21 18 27 26 19 26 -2 0 -12 -10 -23 -22z"/>
<path d="M1830 1472 c0 -7 -6 -12 -14 -12 -8 0 -17 -4 -20 -9 -9 -15 5 -41 22
-41 12 0 12 4 -4 22 -16 18 -16 20 -2 15 16 -6 35 19 23 31 -3 3 -5 0 -5 -6z"/>
<path d="M1873 1448 c2 -7 -7 -26 -22 -43 l-26 -30 32 29 c17 16 29 34 26 42
-3 8 -7 14 -10 14 -3 0 -3 -6 0 -12z"/>
<path d="M850 1443 c-54 -20 -82 -95 -40 -106 14 -4 23 2 32 21 7 15 22 31 34
36 25 11 49 56 29 56 -7 0 -16 -6 -18 -12 -4 -10 -6 -10 -6 0 -1 13 -7 14 -31
5z"/>
<path d="M915 1398 c3 -29 0 -38 -15 -43 -41 -13 -66 -84 -44 -127 29 -56 104
-60 148 -7 14 16 29 29 35 29 5 0 13 5 17 12 5 8 2 9 -9 5 -10 -3 -17 -3 -17
2 0 11 -40 56 -40 45 -1 -16 -29 40 -31 61 -1 14 -4 11 -9 -10 -5 -21 -8 -24
-9 -9 0 11 -5 24 -10 30 -5 5 -12 18 -15 29 -3 11 -4 3 -1 -17z m59 -84 c10
-25 -4 -63 -26 -70 -15 -4 -17 -9 -9 -17 15 -15 14 -24 -2 -30 -8 -3 -14 0
-15 6 -1 21 -11 57 -17 68 -8 12 32 59 51 59 6 0 15 -7 18 -16z"/>
<path d="M623 1387 c-23 -18 -67 -47 -99 -66 l-56 -33 21 -22 c15 -14 24 -17
29 -10 11 17 51 36 62 29 8 -5 145 -179 172 -219 5 -7 10 -7 17 -1 6 7 -12 39
-54 94 -35 46 -67 97 -70 115 -4 17 -9 39 -11 49 -3 10 0 17 8 17 7 0 20 6 29
13 13 10 14 17 5 39 l-12 27 -41 -32z"/>
<path d="M1760 1405 c-7 -8 -8 -15 -2 -15 5 0 15 7 22 15 7 8 8 15 2 15 -5 0
-15 -7 -22 -15z"/>
<path d="M1704 1375 c-3 -8 -3 -19 1 -25 8 -13 42 -13 50 0 3 5 0 7 -9 4 -11
-4 -13 0 -9 15 6 25 -24 30 -33 6z m26 1 c0 -3 -4 -8 -10 -11 -5 -3 -10 -1
-10 4 0 6 5 11 10 11 6 0 10 -2 10 -4z"/>
<path d="M1794 1358 l-19 -23 23 19 c21 18 27 26 19 26 -2 0 -12 -10 -23 -22z"/>
<path d="M1652 1342 c-9 -7 -8 -13 8 -27 11 -10 23 -15 27 -11 4 4 1 11 -7 17
-13 8 -13 10 0 19 13 9 13 10 0 10 -8 0 -21 -4 -28 -8z"/>
<path d="M1730 1309 l-35 -31 32 22 c29 19 50 40 41 40 -2 0 -19 -14 -38 -31z"/>
<path d="M1618 1314 c-4 -3 2 -16 13 -27 15 -16 22 -18 31 -9 9 9 8 12 -5 12
-9 0 -20 7 -25 15 -4 9 -11 13 -14 9z"/>
<path d="M1650 1249 c-35 -31 -35 -31 -3 -9 18 11 35 25 38 30 10 16 2 11 -35
-21z"/>
<path d="M1520 1239 c-15 -28 -7 -33 27 -20 21 8 22 10 5 7 -19 -4 -22 -1 -17
15 8 25 -1 24 -15 -2z"/>
<path d="M1595 1240 c-3 -6 1 -7 9 -4 18 7 21 14 7 14 -6 0 -13 -4 -16 -10z"/>
<path d="M1580 1199 c-14 -12 -34 -27 -44 -35 -11 -7 -18 -16 -15 -18 2 -2 24
13 49 35 46 39 55 55 10 18z"/>
<path d="M1400 1160 c-12 -8 -9 -10 12 -10 21 0 26 -4 21 -17 -4 -10 -2 -14 4
-10 6 4 13 16 16 27 4 15 0 20 -16 20 -12 0 -29 -5 -37 -10z"/>
<path d="M1362 1108 c2 -17 10 -23 27 -23 13 0 25 6 27 13 1 7 0 8 -3 2 -8
-16 -26 -11 -19 6 3 8 2 12 -4 9 -6 -3 -10 -1 -10 4 0 6 -5 11 -11 11 -6 0 -9
-10 -7 -22z"/>
<path d="M1454 1098 l-19 -23 23 19 c21 18 27 26 19 26 -2 0 -12 -10 -23 -22z"/>
<path d="M1316 1087 c-15 -11 -17 -17 -7 -35 6 -12 19 -22 29 -22 12 0 5 -11
-23 -36 -22 -20 -31 -31 -20 -25 11 6 38 28 60 48 23 21 33 32 23 24 -22 -17
-28 -12 -37 29 -5 28 -8 30 -25 17z m19 -37 c3 -5 1 -10 -4 -10 -6 0 -11 5
-11 10 0 6 2 10 4 10 3 0 8 -4 11 -10z"/>
<path d="M1259 1043 c-12 -15 -12 -16 2 -11 13 5 16 2 12 -12 -6 -24 12 -34
27 -15 11 13 10 14 -6 9 -15 -6 -17 -4 -7 6 12 13 7 40 -7 40 -4 0 -14 -8 -21
-17z"/>
<path d="M1204 1005 c-19 -14 -19 -14 1 -29 24 -18 44 -21 27 -4 -7 7 -12 19
-12 28 1 12 4 11 15 -4 8 -11 15 -15 15 -9 0 23 -26 33 -46 18z"/>
<path d="M1154 965 c-7 -18 2 -45 15 -45 5 0 11 9 14 19 4 15 1 18 -12 13 -14
-5 -14 -4 -2 11 9 12 10 17 2 17 -6 0 -14 -7 -17 -15z"/>
<path d="M1230 928 c-19 -16 -26 -26 -15 -20 18 9 64 53 54 52 -2 -1 -20 -15
-39 -32z"/>
<path d="M1077 943 c-11 -11 -8 -20 8 -20 8 0 15 6 15 14 0 14 -12 17 -23 6z"/>
<path d="M1197 943 c-4 -3 -7 -11 -7 -17 0 -6 5 -5 12 2 6 6 9 14 7 17 -3 3
-9 2 -12 -2z"/>
<path d="M1119 897 c11 -14 11 -17 1 -17 -8 0 -11 -3 -7 -6 3 -3 12 -2 21 3
13 7 12 11 -7 22 -20 13 -21 13 -8 -2z"/>
<path d="M1150 868 c-19 -17 -26 -25 -15 -19 30 16 59 40 54 45 -2 2 -20 -10
-39 -26z"/>
<path d="M1035 880 c-3 -5 -1 -11 4 -11 6 -1 16 -3 21 -4 6 -1 13 -3 16 -4 4
0 1 -8 -6 -17 -12 -13 -10 -14 14 -3 26 12 27 13 7 21 -12 4 -21 12 -21 18 0
13 -27 13 -35 0z"/>
<path d="M987 873 c-14 -13 -6 -50 14 -69 20 -18 20 -18 13 11 -4 17 -11 33
-17 36 -5 4 -1 12 9 18 15 8 16 10 3 11 -9 0 -19 -3 -22 -7z"/>
<path d="M1034 779 c-70 -51 -103 -80 -74 -64 13 7 136 99 149 111 2 2 2 4 -1
4 -3 0 -36 -23 -74 -51z"/>
<path d="M926 788 l-19 -31 24 6 c13 4 32 7 42 7 9 0 17 5 17 11 0 7 -10 9
-25 5 -27 -7 -32 3 -13 22 7 7 8 12 2 12 -5 0 -18 -14 -28 -32z"/>
</g>
</svg>
